<svg width="480" height="480" viewBox="0 0 480 480" fill="none" xmlns="http://www.w3.org/2000/svg">
<path fill-rule="evenodd" clip-rule="evenodd" d="M356.753 438.206C322.53 458.408 282.618 470 240 470C112.975 470 10 367.025 10 240C10 112.975 112.975 10 240 10C306.464 10 366.343 38.1916 408.333 83.2693C406.544 84.14 404.92 85.4214 403.613 87.095L368.059 132.601L360.087 67.6729C359.178 60.2727 352.443 55.0102 345.043 55.9188C337.642 56.8274 332.38 63.5631 333.288 70.9634L344.551 162.69L297.776 222.56L268.576 150.287L304.685 65.2179C307.599 58.3548 304.397 50.4295 297.533 47.5162C290.67 44.603 282.745 47.805 279.832 54.6682L254.272 114.884L232.639 61.3406C229.846 54.4277 221.978 51.0878 215.065 53.8808C208.152 56.6739 204.812 64.5421 207.605 71.455L229.238 124.998L169.022 99.4381C162.159 96.5249 154.234 99.7269 151.321 106.59C148.407 113.453 151.609 121.378 158.472 124.292L243.542 160.401L271.905 230.602L196.193 219.962L140.576 146.155C136.089 140.2 127.624 139.011 121.67 143.498C115.715 147.985 114.525 156.449 119.012 162.404L158.381 214.647L101.195 206.61C93.8113 205.573 86.9848 210.717 85.9471 218.1C84.9095 225.483 90.0536 232.31 97.4369 233.348L154.623 241.385L102.38 280.753C96.4251 285.24 95.2355 293.704 99.7225 299.659C104.21 305.613 112.674 306.803 118.629 302.316L192.435 246.699L270.36 257.65L221.913 319.66L130.186 330.922C122.786 331.831 117.524 338.566 118.432 345.967C119.341 353.367 126.077 358.63 133.477 357.721L198.405 349.749L162.852 395.255C158.261 401.13 159.303 409.614 165.178 414.204C171.054 418.795 179.538 417.753 184.128 411.878L219.681 366.372L227.653 431.3C228.562 438.7 235.298 443.963 242.698 443.054C250.098 442.145 255.361 435.41 254.452 428.009L243.189 336.282L290.26 276.034L318.162 345.094L282.052 430.163C279.139 437.026 282.341 444.951 289.204 447.865C296.067 450.778 303.993 447.576 306.906 440.713L332.466 380.497L354.099 434.04C354.74 435.627 355.649 437.026 356.753 438.206ZM425.095 103.447C425.055 103.501 425.014 103.555 424.973 103.609C424.957 103.629 424.942 103.65 424.926 103.67C424.913 103.686 424.901 103.702 424.889 103.718L389.336 149.224L448.139 142.004C441.705 128.364 433.971 115.458 425.095 103.447ZM320.428 237.422L365.827 179.313L457.554 168.05C457.865 168.012 458.172 167.964 458.474 167.906C461.226 176.249 463.513 184.803 465.305 193.539L393.451 247.684L320.428 237.422ZM431.263 252.998L469.279 258.341C469.757 252.29 470 246.174 470 240C470 234.693 469.82 229.428 469.466 224.21L431.263 252.998ZM314.457 263.848L343.196 334.979L428.265 371.089C428.457 371.171 428.646 371.256 428.833 371.345C434.376 363.39 439.43 355.068 443.95 346.423L389.693 274.422L314.457 263.848ZM465.583 285.087C463.332 296.408 460.251 307.431 456.405 318.087L427.506 279.736L465.583 285.087ZM357.5 370.383L378.896 423.34C390.698 414.386 401.609 404.317 411.472 393.292L357.5 370.383Z"/>
    <style>
        path { fill: #666; }
        @media (prefers-color-scheme: dark) {
            path { fill: #FFF; }
        }
    </style>
</svg>
