<svg width="245" height="26" viewBox="0 0 245 26" fill="none" xmlns="http://www.w3.org/2000/svg">
<path d="M25.885 24.31H25.854L22.94 23.783C22.785 23.752 22.692 23.628 22.692 23.473L22.785 19.009H16.647C16.368 19.009 16.213 18.792 16.213 18.575C16.213 18.358 16.368 18.141 16.647 18.141H22.816L22.971 12.158C22.909 12.22 22.847 12.251 22.754 12.251C22.723 12.251 22.661 12.22 22.63 12.22L21.545 11.724C20.894 11.414 20.212 11.135 19.53 10.856C19.065 10.67 17.639 10.174 17.298 9.988C17.236 9.957 17.205 9.926 17.205 9.895C17.205 9.833 17.236 9.802 17.298 9.74L19.654 7.601C19.716 7.539 19.778 7.508 19.84 7.508C20.181 7.508 22.661 11.135 22.94 11.724L22.971 11.817L23.188 4.377C23.188 4.284 23.281 4.191 23.374 4.191H23.436L26.536 5.121C26.66 5.152 26.753 5.307 26.753 5.431L26.319 18.141H27.497L28.675 15.041C28.737 14.917 28.83 14.793 28.985 14.793C29.14 14.793 29.233 14.917 29.264 15.041L30.597 18.451C30.628 18.513 30.628 18.575 30.628 18.637C30.628 18.854 30.38 19.009 30.225 19.009H26.288L26.133 24.093C26.133 24.217 25.978 24.31 25.885 24.31ZM15.655 17.645V17.707C15.655 17.769 15.624 17.831 15.562 17.893C15.531 17.924 15.469 17.924 15.438 17.924C15.376 17.924 15.314 17.924 12.524 14.948C12.152 14.576 11.408 13.894 11.067 13.46L10.664 22.45C10.664 22.574 10.571 22.667 10.447 22.667H10.416L7.719 22.233C7.564 22.202 7.502 22.109 7.502 21.954L7.874 10.918H2.015C1.736 10.918 1.581 10.701 1.581 10.515C1.581 10.298 1.736 10.081 2.015 10.081H7.905L7.998 7.384C7.998 7.291 8.091 7.198 8.184 7.198H8.246L11.098 7.911C11.222 7.942 11.315 8.066 11.315 8.19L11.222 10.081H13.144L14.322 6.95C14.353 6.826 14.508 6.733 14.632 6.733C14.756 6.733 14.88 6.857 14.911 6.95L16.244 10.391C16.275 10.453 16.275 10.515 16.275 10.577C16.275 10.732 16.089 10.918 15.872 10.918H11.191L11.067 13.15H11.098L13.702 12.313H13.795C13.857 12.313 13.981 12.344 14.012 12.406C14.229 12.778 15.531 17.056 15.655 17.645ZM15.407 5.214C15.407 5.679 12.369 7.167 7.657 7.167C6.51 7.167 2.542 7.043 2.542 6.392C2.542 6.268 2.635 6.175 2.79 6.144C3.286 6.051 3.844 6.02 4.371 5.927C10.354 4.997 12.71 3.013 13.547 2.3C13.609 2.238 13.64 2.207 13.702 2.207C14.012 2.207 15.407 5.214 15.407 5.214ZM7.192 14.359C5.146 18.823 0.899 20.931 0.62 20.931C0.465 20.931 0.372 20.807 0.372 20.652C0.372 20.59 0.372 20.559 0.403 20.497C0.589 20.187 0.93 19.908 1.178 19.598C3.131 17.18 3.937 14.979 4.34 12.344C4.371 12.251 4.402 12.189 4.495 12.189C4.588 12.189 7.533 13.15 7.533 13.491C7.533 13.584 7.502 13.739 7.192 14.359ZM16.244 14.359L18.631 12.22C18.693 12.189 18.755 12.158 18.817 12.158C19.065 12.158 22.165 16.188 22.165 16.467C22.165 16.467 22.134 16.715 21.948 16.715C21.7 16.715 16.182 14.7 16.182 14.483C16.182 14.421 16.213 14.39 16.244 14.359ZM55.428 16.808H47.554C47.864 17.676 48.05 18.606 48.05 19.536C48.05 22.512 46.004 25.55 45.508 25.55C45.415 25.55 45.322 25.519 45.229 25.488L39.463 23.752C39.37 23.721 39.308 23.628 39.308 23.535C39.308 23.318 39.463 23.07 39.649 23.07C39.773 23.07 39.928 23.132 40.083 23.132H40.238C41.912 23.132 44.423 21.489 44.547 16.808H36.146C35.867 16.808 35.712 16.591 35.712 16.374C35.712 16.157 35.867 15.94 36.146 15.94H44.547C44.485 15.134 44.361 14.297 44.175 13.491C44.144 13.367 44.051 13.15 44.051 12.964C44.051 12.716 44.206 12.623 44.361 12.623C44.857 12.623 45.88 13.956 46.19 14.39C47.678 12.995 48.732 11.414 48.887 11.166H39.401C39.153 11.166 38.998 10.949 38.998 10.732C38.998 10.515 39.184 10.329 39.401 10.329H49.445C49.476 10.267 49.941 9.43 50.189 9.43C50.22 9.43 50.282 9.461 50.313 9.492L52.576 11.786C52.607 11.817 52.638 11.879 52.638 11.91C52.638 11.972 52.607 12.034 52.545 12.096C52.39 12.22 49.197 14.328 46.779 15.227L47.182 15.94H52.7L53.878 12.84C53.94 12.685 54.033 12.592 54.188 12.592C54.343 12.592 54.436 12.716 54.467 12.84L55.8 16.25C55.8 16.281 55.831 16.343 55.831 16.405C55.831 16.498 55.8 16.591 55.769 16.653C55.707 16.777 55.552 16.808 55.428 16.808ZM53.196 12.065V11.941C53.289 11.538 53.506 11.104 53.63 10.701C54.126 9.058 54.374 7.291 54.436 6.795H38.781C38.068 8.159 34.968 12.375 34.286 12.375C34.131 12.375 34.038 12.251 34.038 12.096C34.038 12.034 34.069 12.003 34.069 11.941C34.162 11.569 34.348 11.197 34.441 10.825C34.565 10.484 35.247 8.376 35.433 5.741C35.464 5.369 35.433 4.935 35.495 4.563C35.526 4.47 35.557 4.439 35.619 4.439H35.681C36.053 4.594 37.789 5.524 38.533 5.958H40.61L39.308 4.997C38.533 4.47 37.696 3.974 36.952 3.416C36.921 3.385 36.797 3.292 36.797 3.199C36.797 3.168 36.828 3.137 36.859 3.106L39.649 1.494C39.68 1.463 39.711 1.463 39.773 1.463C40.238 1.463 41.633 5.71 41.695 5.958H47.089V5.896C47.089 5.803 47.182 5.679 47.833 4.935C48.887 3.633 50.065 1.804 50.468 0.842999C50.499 0.811999 50.53 0.781 50.592 0.781C50.778 0.781 52.669 3.354 52.669 3.664C52.669 4.067 49.507 5.462 48.081 5.958H54.56C54.591 5.493 54.622 5.028 54.622 4.563C54.622 4.47 54.684 4.439 54.777 4.439C55.025 4.439 58.094 6.051 58.094 6.33C58.094 7.074 54.188 12.375 53.413 12.375C53.289 12.375 53.196 12.251 53.196 12.065ZM44.64 0.656999H44.702C45.167 0.656999 45.57 4.222 45.632 5.493C45.632 5.679 45.632 5.896 45.353 5.896C45.291 5.896 45.229 5.865 45.167 5.803C44.485 5.09 43.865 4.346 43.214 3.633C42.687 3.075 42.067 2.548 41.571 1.959C41.54 1.928 41.478 1.804 41.478 1.742C41.478 1.68 41.478 1.649 41.54 1.618L44.64 0.656999ZM82.553 23.38L81.034 22.14C80.538 21.737 80.042 21.334 79.546 20.9C76.446 22.822 73.253 23.504 73.253 23.504C73.098 23.504 72.974 23.411 72.974 23.287C72.974 23.163 73.098 23.07 73.16 23.008C73.687 22.667 74.276 22.388 74.834 22.047C76.012 21.303 77.159 20.435 78.151 19.443C77.376 18.296 77.159 16.777 77.159 16.033C77.159 15.382 77.314 15.289 77.376 15.258H77.407C77.469 15.258 77.531 15.289 77.562 15.32C78.275 16.095 78.926 16.963 79.732 17.614C80.631 16.374 81.313 15.01 81.809 13.553C81.809 13.491 81.84 13.429 81.871 13.336H74.586C74.338 13.336 74.183 13.119 74.183 12.902C74.183 12.685 74.369 12.499 74.586 12.499H77.686C77.655 12.468 77.655 12.406 77.655 12.344L77.872 7.105H73.656C73.377 7.105 73.222 6.888 73.222 6.671C73.222 6.454 73.377 6.237 73.656 6.237H77.903L78.058 2.734C78.058 2.61 78.12 2.517 78.244 2.517H78.306L81.282 2.951C81.437 2.982 81.499 3.075 81.499 3.23L81.313 6.237H83.855L85.064 3.106C85.095 3.013 85.219 2.889 85.343 2.889C85.467 2.889 85.591 2.982 85.653 3.106L86.955 6.547C86.986 6.609 87.017 6.671 87.017 6.733C87.017 6.795 86.986 6.857 86.955 6.919C86.893 7.043 86.769 7.105 86.614 7.105H81.282L80.972 12.344C80.972 12.406 80.941 12.468 80.91 12.499H82.088C82.15 12.251 82.212 12.003 82.305 11.755C82.336 11.662 82.429 11.6 82.522 11.6H82.584L86.18 12.84C86.273 12.871 86.304 12.964 86.304 13.057C86.304 13.429 84.537 16.684 82.119 18.947L83.142 19.319C84.165 19.691 85.157 19.846 86.211 20.063C86.335 20.094 86.459 20.125 86.521 20.249C86.521 20.28 86.552 20.311 86.552 20.373C86.552 20.404 86.521 20.466 86.49 20.497C86.056 21.055 83.545 23.969 83.297 23.969C83.266 23.969 82.987 23.814 82.553 23.38ZM70.184 14.421L69.564 14.793L69.533 16.343C69.502 17.335 69.471 18.42 69.285 19.412C69.099 20.28 68.293 22.295 67.239 22.357C66.929 22.388 62.465 20.497 62.031 20.218C61.938 20.156 61.907 20.063 61.907 19.97C61.907 19.97 61.907 19.567 62.248 19.567H62.341C62.899 19.753 63.364 19.939 63.86 19.939C65.875 19.939 66.123 17.118 66.185 16.374C65.751 16.56 65.317 16.715 64.883 16.839C63.798 17.211 63.085 17.428 62.651 17.428C62.465 17.428 62.372 17.335 62.31 17.149C62.248 16.932 61.783 15.351 61.783 15.196C61.783 14.948 61.876 14.948 62.992 14.824C64.077 14.7 65.193 14.545 66.309 14.297C66.371 12.995 66.402 11.693 66.433 10.36H61.783C61.535 10.36 61.38 10.143 61.38 9.926C61.38 9.709 61.535 9.492 61.783 9.492H66.433C66.433 8.159 66.433 6.795 66.464 5.462L66.495 3.602C66.495 3.509 66.588 3.447 66.681 3.447H66.743L69.688 4.594C69.812 4.656 69.905 4.78 69.905 4.935C69.905 5.121 69.874 5.276 69.874 5.462L69.75 9.492H71.021L71.951 7.043C71.982 6.95 72.106 6.826 72.23 6.826C72.354 6.826 72.478 6.919 72.54 7.043L73.594 9.802C73.594 9.833 73.625 9.895 73.625 9.957C73.625 10.019 73.594 10.112 73.563 10.174C73.501 10.298 73.377 10.36 73.222 10.36H69.719L69.626 13.429C69.657 13.429 69.688 13.429 69.719 13.398C70.308 13.212 70.866 13.026 71.455 12.809C72.044 12.561 72.199 12.53 72.261 12.53C72.354 12.53 72.416 12.561 72.447 12.623C72.478 12.654 72.478 12.685 72.478 12.716C72.478 12.964 71.362 13.677 70.184 14.421ZM107.694 18.296L107.074 17.242L105.865 15.289C105.338 14.452 104.687 13.553 104.16 12.685L103.819 21.675C103.819 21.799 103.695 21.892 103.602 21.892H103.54L100.905 21.489C100.75 21.458 100.688 21.334 100.688 21.21L100.905 13.305C99.479 15.816 97.278 17.986 96.627 18.544C96.565 18.575 96.503 18.637 96.441 18.637C96.348 18.637 96.255 18.482 96.255 18.389C96.255 18.358 96.255 18.327 96.875 16.901C97.247 15.971 97.588 15.041 97.867 14.08L98.425 12.096C98.611 11.135 98.704 10.918 98.921 10.918C98.952 10.918 99.014 10.918 99.045 10.949L100.967 11.879L101.029 9.647H97.278C97.123 9.647 96.999 9.616 96.937 9.523C96.1 11.135 94.953 12.375 93.558 13.398L95.728 13.77C95.883 13.801 95.945 13.925 95.945 14.049L95.449 23.039C95.449 23.194 95.294 23.256 95.17 23.256L92.752 23.008C92.597 23.008 92.535 22.884 92.535 22.729L92.907 13.863C90.427 15.568 89.032 15.909 88.908 15.909C88.722 15.909 88.629 15.785 88.629 15.661C88.629 15.568 88.66 15.506 88.722 15.413C89.032 15.072 89.435 14.762 89.776 14.421C93.713 10.67 93.93 7.818 93.93 6.733C92.969 7.167 91.419 7.756 90.613 7.787C90.458 7.787 90.21 7.756 90.21 7.508C90.21 7.415 90.303 7.291 90.365 7.229C90.613 6.981 90.954 6.764 91.233 6.516C92.969 4.935 93.558 4.129 94.395 2.92C94.612 2.579 94.767 2.176 95.015 1.897C95.046 1.835 95.139 1.804 95.201 1.804C95.263 1.804 95.294 1.804 95.325 1.835L97.805 3.912C97.836 3.943 97.867 3.974 97.867 4.036C97.867 4.098 97.805 4.191 97.774 4.253C97.216 4.873 95.79 5.772 94.829 6.299C97.526 6.826 97.774 6.95 97.774 7.229C97.774 7.322 97.712 7.849 97.278 8.779H101.06L101.184 4.749C101.184 4.656 101.277 4.563 101.37 4.563H101.432L104.222 5.245C104.346 5.276 104.439 5.431 104.439 5.555L104.315 8.779H105.462L106.671 5.679C106.702 5.555 106.795 5.431 106.95 5.431C107.105 5.431 107.198 5.524 107.26 5.679L108.562 9.089C108.593 9.151 108.624 9.213 108.624 9.275C108.624 9.337 108.593 9.399 108.562 9.461C108.5 9.585 108.345 9.647 108.221 9.647H104.284L104.191 11.941C104.873 11.817 106.671 11.569 106.857 11.569C107.012 11.569 107.074 11.662 107.105 11.786C107.663 13.925 108.159 17.242 108.159 18.265C108.159 18.42 108.097 18.482 108.004 18.482C107.911 18.482 107.787 18.42 107.694 18.296ZM111.693 24.31L107.229 22.388C107.105 22.326 107.074 22.233 107.074 22.14C107.074 21.954 107.198 21.737 107.384 21.737C107.415 21.737 107.446 21.768 107.477 21.768L107.756 21.892C108.097 22.047 108.469 22.14 108.81 22.14C110.825 22.14 111.042 19.598 111.135 17.707L111.383 14.483C111.414 13.987 111.383 13.398 111.476 12.933H108.097C107.818 12.933 107.663 12.716 107.663 12.499C107.663 12.282 107.818 12.065 108.097 12.065H115.754L116.932 8.965C116.994 8.841 117.087 8.717 117.242 8.717C117.366 8.717 117.49 8.841 117.521 8.934L118.854 12.375C118.885 12.437 118.885 12.499 118.885 12.561C118.885 12.778 118.637 12.933 118.482 12.933H112.499L114.452 13.46C114.607 13.491 114.669 13.677 114.669 13.832C114.669 14.142 114.607 14.483 114.576 14.824L114.421 16.839C114.297 18.327 114.235 19.815 114.049 21.303C113.925 22.171 113.181 24.341 112.096 24.341C111.972 24.341 111.817 24.31 111.693 24.31ZM117.707 7.198H109.058C108.81 7.198 108.655 6.981 108.655 6.764C108.655 6.578 108.81 6.361 109.058 6.361H114.979L116.157 3.23C116.188 3.137 116.343 2.982 116.467 2.982C116.622 2.982 116.715 3.106 116.746 3.23L118.079 6.671C118.11 6.733 118.11 6.795 118.11 6.857C118.11 7.012 117.924 7.198 117.707 7.198ZM107.88 1.246H107.973C108.376 1.246 109.244 4.253 109.461 5.741C109.461 5.772 109.492 5.834 109.492 5.865C109.492 5.958 109.461 6.02 109.368 6.082C109.337 6.113 109.275 6.113 109.244 6.113C109.182 6.113 109.151 6.082 109.089 6.02C108.376 5.338 107.725 4.625 106.981 3.974C106.485 3.509 105.896 3.075 105.431 2.579C105.369 2.517 105.307 2.455 105.307 2.362C105.307 2.331 105.338 2.3 105.4 2.269L107.88 1.246ZM140.275 22.667L137.609 22.295C137.392 22.264 137.237 22.078 137.237 21.861L137.299 21.334H125.426C125.178 21.334 124.992 21.086 124.992 20.838C124.992 20.59 125.178 20.342 125.426 20.342H137.33L138.074 9.492H126.294C126.046 9.492 125.86 9.275 125.86 8.996C125.86 8.748 126.046 8.5 126.294 8.5H138.136L138.198 7.725C138.198 7.539 138.384 7.415 138.57 7.415H138.632L141.298 8.128C141.484 8.19 141.608 8.376 141.608 8.562L140.678 22.295C140.678 22.512 140.492 22.667 140.275 22.667ZM163.091 23.876H162.967C157.945 22.233 154.721 21.334 150.598 20.621C150.381 20.59 150.257 20.497 150.257 20.311C150.257 20.28 150.288 20.218 150.288 20.187L151.249 17.924C151.342 17.769 151.466 17.676 151.621 17.676C151.962 17.676 158.751 20.125 163.184 23.349C163.308 23.411 163.37 23.504 163.37 23.597C163.37 23.628 163.37 23.876 163.091 23.876ZM161.572 16.281H161.479C157.201 15.041 155.248 14.483 151.931 13.801C151.776 13.77 151.652 13.646 151.652 13.46C151.652 13.429 151.652 13.367 151.683 13.336L152.52 11.445C152.582 11.29 152.675 11.104 152.923 11.104C153.047 11.104 157.697 12.995 161.82 15.63C161.944 15.692 161.975 15.785 161.975 15.909C161.975 16.188 161.789 16.281 161.572 16.281ZM152.365 6.547L153.574 4.811C153.698 4.656 153.853 4.532 154.008 4.532C154.132 4.532 159.092 7.198 162.347 9.895C162.44 9.988 162.471 10.081 162.471 10.174C162.471 10.36 162.347 10.515 162.13 10.515C162.068 10.515 162.037 10.515 161.975 10.484C157.635 8.717 155.744 7.973 152.582 6.95C152.458 6.888 152.303 6.857 152.303 6.671C152.303 6.64 152.334 6.578 152.365 6.547ZM184.884 21.21H168.826C168.609 21.21 168.423 20.931 168.423 20.714C168.423 20.497 168.609 20.28 168.826 20.28H178.126L178.715 13.584H171.616C171.399 13.584 171.244 13.367 171.244 13.15C171.244 12.933 171.399 12.716 171.616 12.716H178.808L178.901 11.817C178.901 11.693 179.025 11.569 179.149 11.569L181.412 12.499C181.598 12.561 181.66 12.685 181.66 12.84L180.823 20.28H182.776L183.644 17.986C183.737 17.769 183.861 17.738 183.923 17.738C183.985 17.738 184.109 17.769 184.202 17.986L185.225 20.621C185.225 20.621 185.256 20.714 185.256 20.745C185.256 21.055 184.977 21.21 184.884 21.21ZM210.583 22.853L207.39 23.039C207.266 23.039 207.142 22.946 207.142 22.822L207.111 21.644H197.532L197.501 22.636C197.501 22.76 197.377 22.884 197.253 22.884L194.06 22.915C193.936 22.915 193.812 22.791 193.812 22.667L194.277 6.237C194.277 6.144 194.37 6.051 194.463 6.051H194.525L197.873 6.795C198.028 6.826 198.121 6.919 198.121 7.074L198.09 7.725H206.739L206.708 6.516C206.708 6.392 206.801 6.299 206.925 6.299H206.956L210.335 6.857C210.459 6.888 210.583 6.981 210.583 7.136L210.831 22.605C210.831 22.729 210.707 22.853 210.583 22.853ZM207.08 20.838L206.925 14.824H197.811L197.563 20.838H207.08ZM206.894 14.018L206.739 8.531H198.059L197.842 14.018H206.894ZM244.807 18.544L243.908 22.326C243.877 22.45 243.784 22.543 243.629 22.543C242.823 22.481 242.017 22.357 241.211 22.264C232.81 21.365 232.221 19.908 232.221 18.854V17.831C232.221 16.498 232.252 15.196 232.252 13.863V11.476C232.252 11.383 232.345 11.29 232.438 11.29H232.5L236.034 12.189C236.158 12.22 236.251 12.344 236.251 12.468V12.499C236.251 12.561 236.22 12.592 236.22 12.623H239.103L240.374 6.454H232.5C232.252 6.454 232.097 6.237 232.097 6.02C232.097 5.803 232.283 5.617 232.5 5.617H240.529L240.777 4.47C240.808 4.377 240.901 4.315 240.994 4.315H241.056L244.125 5.214C244.218 5.245 244.311 5.369 244.311 5.462V5.524L242.42 14.08C242.389 14.204 242.296 14.266 242.172 14.266H242.11L239.103 13.832C239.01 13.801 238.917 13.708 238.917 13.615V13.553L238.948 13.429H236.096C236.096 13.584 236.065 13.739 236.065 13.863L235.631 17.831L235.445 19.381C235.445 19.443 235.414 19.505 235.414 19.567C235.414 20.094 235.817 20.528 238.452 20.528C240.529 20.528 241.118 20.28 243.226 18.947C243.567 18.73 243.877 18.482 244.187 18.296C244.28 18.234 244.373 18.203 244.497 18.203C244.652 18.203 244.807 18.296 244.807 18.451V18.544ZM228.811 23.566L226.145 23.535C226.021 23.535 225.928 23.411 225.928 23.287V22.946H222.58L222.611 23.256C222.611 23.38 222.518 23.504 222.394 23.535L219.79 24.062H219.728C219.635 24.062 219.542 23.969 219.542 23.876L219.201 16.839C219.201 16.746 219.263 16.653 219.356 16.653H219.418L222.115 17.335C222.27 17.366 222.363 17.49 222.363 17.645V17.769H226.238L226.331 16.591C226.331 16.498 226.424 16.405 226.517 16.405H226.579L229.183 17.273C229.369 17.335 229.4 17.428 229.4 17.614L229.059 23.318C229.059 23.442 228.935 23.566 228.811 23.566ZM230.361 7.136H217.434C217.155 7.136 217.031 6.919 217.031 6.702C217.031 6.485 217.155 6.268 217.434 6.268H222.518L221.588 1.835V1.773C221.588 1.68 221.681 1.587 221.774 1.587H224.564C224.688 1.587 224.843 1.711 224.843 1.835L225.246 6.268H227.633L228.811 3.168C228.842 3.075 228.997 2.92 229.121 2.92C229.245 2.92 229.369 3.044 229.4 3.137L230.733 6.578C230.764 6.64 230.764 6.702 230.764 6.764C230.764 6.981 230.516 7.136 230.361 7.136ZM225.99 22.109L226.207 18.606H222.394L222.549 22.109H225.99ZM228.78 11.135H220.255C220.007 11.135 219.852 10.918 219.852 10.701C219.852 10.484 220.007 10.267 220.255 10.267H226.579L227.509 7.849C227.571 7.694 227.664 7.601 227.819 7.601C227.974 7.601 228.067 7.725 228.098 7.849L229.152 10.577C229.183 10.639 229.183 10.701 229.183 10.763C229.183 10.856 229.121 11.135 228.78 11.135ZM228.78 15.01H220.255C220.007 15.01 219.852 14.793 219.852 14.576C219.852 14.39 220.007 14.173 220.255 14.173H226.579L227.509 11.724C227.571 11.569 227.664 11.476 227.819 11.476C227.974 11.476 228.067 11.6 228.098 11.724L229.152 14.483C229.183 14.545 229.183 14.607 229.183 14.669C229.183 14.824 228.997 15.01 228.78 15.01Z" fill="#555555"/>
</svg>
