<svg width="314" height="34" viewBox="0 0 314 34" fill="none" xmlns="http://www.w3.org/2000/svg">
<path d="M5 29H309" stroke="#FE9E0B" stroke-width="9" stroke-linecap="square"/>
<path d="M15.7745 0.487L16.3945 1.789C14.0385 2.471 9.94648 3.06 5.32748 3.091L4.92448 1.634C12.4575 1.603 15.7745 0.487 15.7745 0.487ZM23.5555 7.152L22.5325 8.33C21.0135 6.625 19.7115 5.509 18.1615 4.393L19.0915 3.339C20.6415 4.517 22.0985 5.726 23.5555 7.152ZM17.3245 9.663H12.6125V4.455C14.4415 4.207 15.8055 4.083 17.3245 3.525L17.9755 4.858C17.9755 4.858 16.1775 5.509 14.0385 5.757V8.268H17.3245V9.663ZM10.5045 9.663H5.32748V8.268H9.07848V6.253C9.07848 6.253 7.28048 6.315 6.25748 6.315L5.85448 4.827C8.11748 4.827 10.5045 4.734 10.5045 4.734V9.663ZM32.4835 13.507L32.4525 15.119C31.4605 15.429 29.8795 15.801 28.6705 16.08V0.424999H30.1275V14.158C31.1195 13.91 32.4835 13.507 32.4835 13.507ZM25.1675 15.305V12.081L24.2685 13.042C22.8425 11.585 21.2925 10.283 19.7425 9.136L20.7655 8.082C22.0365 9.105 23.4315 10.283 25.1675 11.864V5.323L24.7645 5.819C23.4315 4.61 21.6955 3.06 20.1455 2.037L21.1065 0.921C22.3465 1.882 23.4935 2.688 25.1675 4.114V0.424999H26.6245V16.514C24.8265 16.917 20.6105 17.723 17.9445 18.126L17.4485 19.149C15.6195 16.824 14.0075 14.282 12.6435 11.523H17.3245V12.918H14.6585C15.3095 14.096 16.4255 15.553 17.3865 16.545C19.8975 16.266 23.8655 15.615 25.1675 15.305ZM22.9665 14.468L21.8815 15.584C20.2695 13.755 18.9365 12.546 17.5415 11.399L18.5645 10.345C20.0835 11.616 21.4475 12.918 22.9665 14.468ZM5.29648 21.474L4.58348 19.676C6.00948 17.878 7.52848 15.274 8.36548 12.918H5.32748V11.523H10.1635C8.86148 15.243 7.21848 18.436 5.29648 21.474ZM14.0385 28.294H12.6125V14.158C13.8525 16.452 15.2475 18.746 16.7355 20.668L15.8675 22.559C15.8675 22.559 14.9995 21.071 14.0385 18.932V28.294ZM10.5045 28.325L9.07848 28.294V20.482C8.48948 22.528 7.83848 24.109 6.90848 25.566L6.13348 23.644C7.80748 20.947 9.29548 17.661 10.5045 14.375V28.325ZM30.1275 28.294H28.6705V18.064C29.9415 17.754 31.5225 17.351 32.3905 17.041L32.3595 18.56C32.3595 18.56 31.1815 18.932 30.1275 19.242V28.294ZM26.6245 28.325L25.1675 28.294V20.451C23.6485 20.885 20.3935 21.598 18.1925 22.001L17.7895 20.42C20.0525 20.079 24.0825 19.273 26.6245 18.622V28.325ZM49.4715 4.486L48.0145 4.951C47.2395 3.556 46.3715 2.223 45.4415 1.014L46.8365 0.424999C47.7045 1.572 48.6345 3.029 49.4715 4.486ZM56.9735 4.579L55.4855 5.013C54.8655 3.556 54.1835 2.161 53.4085 0.858998L54.8655 0.424999C55.5785 1.634 56.3225 3.06 56.9735 4.579ZM58.8645 6.625H42.0935V13.724H40.6985V5.23H44.2325C43.7055 4.238 43.0545 3.153 42.3725 2.285L43.7985 1.634C44.5115 2.595 45.2865 3.897 45.9995 5.23H51.8895C51.4555 4.114 50.7425 2.688 50.1535 1.696L51.6725 1.262C52.2925 2.378 52.9745 3.804 53.5325 5.23H57.9655C59.2365 3.618 59.9805 2.099 60.5695 0.393999L62.2745 0.796999C61.3755 2.905 60.2905 4.858 58.8645 6.625ZM67.4825 13.693H66.0875V6.625H61.2205C62.6775 4.61 63.6075 2.967 64.2895 1.231L65.7775 1.634C65.2505 2.967 64.6305 4.176 64.0105 5.23H67.4825V13.693ZM67.8545 18.746H56.1985V17.568C58.5235 16.731 61.0655 15.615 63.4835 14.375V12.267H44.2635V8.175H63.9175V10.903H64.8785V14.995C63.5455 15.708 61.4995 16.607 59.4845 17.289H67.8545V18.746ZM60.0425 13.724V14.499C57.8415 15.739 55.8575 16.545 53.8735 17.041V18.746H39.9545V17.289H52.4785V15.863H53.9045C53.9045 15.863 55.2685 15.615 56.6015 15.119H43.2405V13.724H60.0425ZM51.1455 24.853H45.9375L45.4105 23.396H51.1455C52.2305 23.396 52.4785 23.21 52.4785 22.156V21.939H39.9545V20.482H53.8735V22.156C53.8735 24.388 53.1915 24.853 51.1455 24.853ZM67.8545 21.939H57.5935V22.156C57.5935 27.116 56.2915 28.294 51.6415 28.294H47.2705L46.7435 26.837H51.4245C55.7645 26.837 56.1985 25.659 56.1985 22.156V20.482H67.8545V21.939ZM62.5225 10.903V9.57H45.6585V10.903H62.5225ZM102.791 4.548H95.4755V0.424999H96.9945V3.029H102.791V4.548ZM93.5225 4.548H86.2995V3.029H92.0035V0.424999H93.5225V4.548ZM80.7505 6.687H76.0385V5.292H79.2935V0.424999H80.7505V6.687ZM93.5225 11.926H86.5785V10.376H92.0035V7.865H86.2995V6.687H82.7035V0.424999H84.1605V5.292H86.8575V6.377H93.5225V11.926ZM79.2935 13.848V9.756H76.0385V8.361H80.7505V14.995C80.7505 14.995 78.6115 15.491 75.6045 15.987L75.2635 14.468C77.3095 14.22 79.2935 13.848 79.2935 13.848ZM98.7925 13.538V14.313C98.1725 17.041 96.4055 19.428 94.4835 21.009C92.6235 19.428 91.1045 17.227 90.0815 15.057H86.5785V13.662C85.3385 14.034 84.0055 14.344 82.6725 14.592V8.361H86.8575V9.756H84.1295V12.918C85.5865 12.577 86.8575 12.174 86.8575 12.174V13.538H98.7925ZM103.163 23.427L102.388 24.977C100.218 24.295 98.2965 23.551 96.3125 22.249C100.187 18.312 100.962 14.158 100.962 14.158V11.926H95.4755V6.377H102.791V7.865H96.9945V10.376H102.419V14.127C102.419 14.127 101.365 18.56 98.5445 21.877C99.8155 22.559 101.303 22.993 103.163 23.427ZM85.7415 25.008L85.0285 23.396C87.1985 23.024 88.9345 22.497 90.5155 21.815C88.9655 19.924 87.2295 16.607 87.2295 16.607L88.4075 15.925C89.5235 18.281 90.9805 20.389 92.7475 22.218C90.3295 23.644 88.2525 24.419 85.7415 25.008ZM78.3325 24.76H76.0385L75.6355 23.365H77.8365C79.1385 23.365 79.2935 23.024 79.2935 21.815V18.808C79.2935 18.808 78.2395 19.087 76.2865 19.397L75.9765 17.878C78.3945 17.506 80.7505 17.01 80.7505 17.01V21.815C80.7505 23.427 80.4715 24.76 78.3325 24.76ZM79.3865 28.294H77.1855L76.7515 26.837H79.1075C82.3625 26.837 82.7035 25.535 82.7035 21.846V16.545C84.3155 16.204 85.7105 15.832 86.8575 15.429V16.917C86.8575 16.917 85.4935 17.413 84.1605 17.785V21.846C84.1605 26.217 83.5715 28.294 79.3865 28.294ZM101.551 26.682L100.776 28.294C98.3585 27.426 96.4985 26.558 94.6075 25.318C92.4685 26.62 90.4535 27.488 87.1675 28.294L86.4855 26.682C89.4925 26.062 91.8485 25.163 94.5765 23.551C96.7155 24.977 99.4125 26 101.551 26.682ZM97.1805 15.057H91.7245C92.4065 16.638 93.2745 17.909 94.4835 19.118C96.4055 17.351 97.1805 15.057 97.1805 15.057ZM123.251 28.325L121.794 28.294V10.345H118.601L118.88 10.624L118.384 11.616L119.345 11.647C119.314 17.506 118.88 22.869 118.725 24.667L117.516 24.202C117.516 24.202 118.198 18.25 118.229 11.988C117.857 12.701 117.454 13.383 117.082 13.879V28.294H115.749V13.569C116.586 12.391 117.268 11.182 117.826 9.88V8.95H123.251V28.325ZM126.413 28.294H124.956V8.95H130.35V9.353H138.534V10.686H130.35V10.345H126.413V28.294ZM130.474 28.294L129.978 26.775C135.186 26.775 135.93 26.527 135.93 22.311V12.608H138.534V13.941H137.201V22.497C137.201 26.837 136.736 28.294 130.474 28.294ZM132.303 22.249V13.941H130.35V12.608H133.574V22.311C133.574 24.729 132.985 24.884 129.389 24.884L128.955 23.52H130.257C132.303 23.52 132.303 23.427 132.303 22.249ZM130.35 7.09H124.956V0.424999H126.413V1.851L127.281 1.51C127.622 2.161 128.273 3.556 128.862 5.044L127.746 5.54C127.312 4.238 126.692 2.688 126.413 2.099V5.695H130.35V7.09ZM113.703 28.325L112.37 28.294V19.273C111.905 19.707 111.409 20.048 111.409 20.048L111.192 18.467C111.998 17.909 112.959 17.072 113.703 16.142V28.325ZM120.833 25.535L119.593 25.07C119.717 23.458 120.12 17.785 120.12 11.678L121.236 11.74C121.236 18.343 120.833 25.535 120.833 25.535ZM123.251 7.09H117.826V5.695H121.794V0.424999H123.251V7.09ZM128.583 23.768L127.343 24.264V22.435C127.343 20.172 127.312 16.018 127.064 11.74L128.087 11.678C128.397 17.01 128.552 22.28 128.583 23.768ZM112.866 10.004L112.122 8.454C113.982 6.935 115.904 4.424 117.237 2.037L118.446 2.719C117.02 5.261 114.974 8.175 112.866 10.004ZM110.851 15.553L110.603 13.848C110.603 13.848 113.796 11.275 115.718 7.276L116.741 8.33C115.191 11.182 113.362 13.662 110.851 15.553ZM130.567 23.055L129.42 23.458C129.327 21.691 129.234 16.731 128.862 11.647L129.823 11.585C130.381 17.909 130.567 23.055 130.567 23.055ZM138.131 2.688H130.691V1.293H138.131V2.688ZM138.131 5.943H130.691V4.548H138.131V5.943ZM111.316 6.625L110.634 5.168C110.634 5.168 113.021 3.308 114.54 0.424999L115.78 1.107C114.54 3.153 112.897 5.292 111.316 6.625ZM131.032 4.207L129.885 4.672C129.327 3.215 128.676 1.82 128.335 1.107L129.358 0.703999C129.358 0.703999 130.226 2.347 131.032 4.207ZM166.186 11.461V8.826C165.256 8.795 163.83 8.795 162.094 8.795C158.157 8.795 152.732 8.857 148.981 8.981V7.431C152.608 7.338 157.909 7.307 162.249 7.307C164.419 7.307 166.341 7.307 167.674 7.338V10.965C167.674 13.972 167.674 17.258 167.643 21.195C165.473 21.226 163.055 21.226 160.637 21.226C156.111 21.226 151.616 21.195 148.857 21.133V19.583C151.585 19.707 156.731 19.769 161.474 19.769C163.117 19.769 164.729 19.769 166.155 19.738C166.186 16.855 166.186 13.848 166.186 11.461ZM171.363 26.279L169.813 26.248C169.72 23.551 169.689 19.397 169.689 15.305C169.689 11.647 169.72 8.051 169.782 5.509C167.581 5.571 164.388 5.602 161.04 5.602C156.731 5.602 152.143 5.54 148.981 5.478V3.959C151.926 4.052 156.235 4.083 160.451 4.083C164.698 4.083 168.821 4.052 171.332 3.959C171.239 6.749 171.177 10.903 171.177 14.995C171.177 19.397 171.239 23.706 171.363 26.279ZM167.581 26.279L166.031 26.248L166.093 24.512C163.675 24.512 160.73 24.481 157.878 24.481C154.375 24.481 150.996 24.512 148.857 24.574V23.055C151.027 22.993 154.22 22.993 157.599 22.993C161.009 22.993 164.605 22.993 167.581 23.024V26.279ZM202.27 4.92L201.712 6.408C196.628 4.579 191.327 3.06 186.553 2.161L187.049 0.796999C191.482 1.603 197.031 3.029 202.27 4.92ZM200.968 8.299L200.379 9.818C195.698 7.834 190.149 6.253 185.406 5.323L185.933 3.897C190.831 4.889 196.008 6.315 200.968 8.299ZM200.224 13.011L199.666 14.406C195.977 12.887 191.792 11.554 187.297 10.531L187.824 9.198C192.102 10.128 196.442 11.461 200.224 13.011ZM198.922 16.328L198.333 17.785C194.644 16.111 190.242 14.716 186.026 13.786L186.584 12.329C191.203 13.383 195.202 14.654 198.922 16.328ZM203.262 23.241L202.611 24.636C196.194 22.032 190.18 20.265 183.918 18.901L184.538 17.537C190.893 18.87 197.465 20.73 203.262 23.241ZM201.588 26.806L200.906 28.232C195.574 25.69 188.94 23.706 182.337 22.373L183.019 20.885C189.56 22.249 195.636 24.078 201.588 26.806ZM236.37 21.288V22.59C234.944 22.621 231.875 22.621 229.333 22.652L230.759 8.826C228.31 8.857 224.466 8.888 221.18 8.888C219.723 8.888 218.359 8.888 217.274 8.857L217.243 7.524C218.576 7.586 220.746 7.617 223.102 7.617C226.264 7.617 229.829 7.586 232.185 7.555L230.728 21.381C233.053 21.381 235.099 21.35 236.37 21.288ZM226.295 21.412L227.411 11.461C224.342 11.523 220.56 11.492 217.367 11.709L217.336 10.376C220.281 10.252 225.024 10.252 228.868 10.159L227.411 22.683C222.358 22.683 216.809 22.652 214.236 22.59V21.288C216.158 21.381 221.273 21.412 226.295 21.412ZM236.37 24.171V25.442C234.2 25.38 229.674 25.38 225.21 25.38C220.715 25.38 216.282 25.38 214.236 25.442V24.171C216.654 24.109 220.963 24.109 225.272 24.109C229.612 24.109 233.952 24.109 236.37 24.171ZM265.417 12.887H250.63V4.393H265.417V12.887ZM269.323 28.325L267.835 28.294V2.44H248.212V28.294H246.724V0.982999H269.323V28.325ZM265.417 23.892H250.63V14.84H265.417V23.892ZM265.417 28.325L263.929 28.294V27.271H252.118V28.294H250.63V25.845H265.417V28.325ZM263.929 11.43V5.85H252.118V11.43H263.929ZM263.929 22.435V16.297H252.118V22.435H263.929ZM291.178 2.254H280.266V0.982999H291.178V2.254ZM291.178 4.548H280.266V3.277H291.178V4.548ZM292.015 6.811H279.429V5.447H292.015V6.811ZM292.015 9.508H279.429V8.175H292.015V9.508ZM291.178 11.647H280.266V10.438H291.178V11.647ZM300.385 24.078H298.556C297.068 24.078 296.293 23.675 296.293 21.846V13.631H304.942V2.44H292.449V0.982999H306.337V15.057H297.688V21.784C297.688 22.435 297.905 22.621 298.587 22.621H300.323C301.749 22.621 301.935 22.001 302.214 17.692L303.64 18.25C303.33 23.396 302.803 24.078 300.385 24.078ZM291.178 13.817H280.266V12.639H291.178V13.817ZM291.178 15.925H280.266V14.716H291.178V15.925ZM302.4 27.674H297.223C293.906 27.674 292.697 26.217 292.697 22.311V10.314H301.315V5.757H292.449V4.3H302.71V11.771H294.092V22.249C294.092 25.287 294.681 26.217 297.223 26.217H302.369C305.19 26.217 305.469 24.605 305.903 19.18L307.329 19.738C306.771 26.682 305.81 27.674 302.4 27.674ZM291.178 18.095H280.266V16.917H291.178V18.095ZM288.14 24.884H283.273V21.443H288.14V24.884ZM291.426 27.581L284.606 27.55V28.294H283.273V26.217H290.031V20.203H281.413V28.294H280.018V18.994H291.426V27.581ZM286.838 23.799V22.528H284.606V23.799H286.838Z" fill="#404040"/>
</svg>
