<svg width="238" height="26" viewBox="0 0 238 26" fill="none" xmlns="http://www.w3.org/2000/svg">
<path d="M25.885 24.31H25.854L22.94 23.783C22.785 23.752 22.692 23.628 22.692 23.473L22.785 19.009H16.647C16.368 19.009 16.213 18.792 16.213 18.575C16.213 18.358 16.368 18.141 16.647 18.141H22.816L22.971 12.158C22.909 12.22 22.847 12.251 22.754 12.251C22.723 12.251 22.661 12.22 22.63 12.22L21.545 11.724C20.894 11.414 20.212 11.135 19.53 10.856C19.065 10.67 17.639 10.174 17.298 9.988C17.236 9.957 17.205 9.926 17.205 9.895C17.205 9.833 17.236 9.802 17.298 9.74L19.654 7.601C19.716 7.539 19.778 7.508 19.84 7.508C20.181 7.508 22.661 11.135 22.94 11.724L22.971 11.817L23.188 4.377C23.188 4.284 23.281 4.191 23.374 4.191H23.436L26.536 5.121C26.66 5.152 26.753 5.307 26.753 5.431L26.319 18.141H27.497L28.675 15.041C28.737 14.917 28.83 14.793 28.985 14.793C29.14 14.793 29.233 14.917 29.264 15.041L30.597 18.451C30.628 18.513 30.628 18.575 30.628 18.637C30.628 18.854 30.38 19.009 30.225 19.009H26.288L26.133 24.093C26.133 24.217 25.978 24.31 25.885 24.31ZM15.655 17.645V17.707C15.655 17.769 15.624 17.831 15.562 17.893C15.531 17.924 15.469 17.924 15.438 17.924C15.376 17.924 15.314 17.924 12.524 14.948C12.152 14.576 11.408 13.894 11.067 13.46L10.664 22.45C10.664 22.574 10.571 22.667 10.447 22.667H10.416L7.719 22.233C7.564 22.202 7.502 22.109 7.502 21.954L7.874 10.918H2.015C1.736 10.918 1.581 10.701 1.581 10.515C1.581 10.298 1.736 10.081 2.015 10.081H7.905L7.998 7.384C7.998 7.291 8.091 7.198 8.184 7.198H8.246L11.098 7.911C11.222 7.942 11.315 8.066 11.315 8.19L11.222 10.081H13.144L14.322 6.95C14.353 6.826 14.508 6.733 14.632 6.733C14.756 6.733 14.88 6.857 14.911 6.95L16.244 10.391C16.275 10.453 16.275 10.515 16.275 10.577C16.275 10.732 16.089 10.918 15.872 10.918H11.191L11.067 13.15H11.098L13.702 12.313H13.795C13.857 12.313 13.981 12.344 14.012 12.406C14.229 12.778 15.531 17.056 15.655 17.645ZM15.407 5.214C15.407 5.679 12.369 7.167 7.657 7.167C6.51 7.167 2.542 7.043 2.542 6.392C2.542 6.268 2.635 6.175 2.79 6.144C3.286 6.051 3.844 6.02 4.371 5.927C10.354 4.997 12.71 3.013 13.547 2.3C13.609 2.238 13.64 2.207 13.702 2.207C14.012 2.207 15.407 5.214 15.407 5.214ZM7.192 14.359C5.146 18.823 0.899 20.931 0.62 20.931C0.465 20.931 0.372 20.807 0.372 20.652C0.372 20.59 0.372 20.559 0.403 20.497C0.589 20.187 0.93 19.908 1.178 19.598C3.131 17.18 3.937 14.979 4.34 12.344C4.371 12.251 4.402 12.189 4.495 12.189C4.588 12.189 7.533 13.15 7.533 13.491C7.533 13.584 7.502 13.739 7.192 14.359ZM16.244 14.359L18.631 12.22C18.693 12.189 18.755 12.158 18.817 12.158C19.065 12.158 22.165 16.188 22.165 16.467C22.165 16.467 22.134 16.715 21.948 16.715C21.7 16.715 16.182 14.7 16.182 14.483C16.182 14.421 16.213 14.39 16.244 14.359ZM53.568 16.808H45.694C46.004 17.676 46.19 18.606 46.19 19.536C46.19 22.512 44.144 25.55 43.648 25.55C43.555 25.55 43.462 25.519 43.369 25.488L37.603 23.752C37.51 23.721 37.448 23.628 37.448 23.535C37.448 23.318 37.603 23.07 37.789 23.07C37.913 23.07 38.068 23.132 38.223 23.132H38.378C40.052 23.132 42.563 21.489 42.687 16.808H34.286C34.007 16.808 33.852 16.591 33.852 16.374C33.852 16.157 34.007 15.94 34.286 15.94H42.687C42.625 15.134 42.501 14.297 42.315 13.491C42.284 13.367 42.191 13.15 42.191 12.964C42.191 12.716 42.346 12.623 42.501 12.623C42.997 12.623 44.02 13.956 44.33 14.39C45.818 12.995 46.872 11.414 47.027 11.166H37.541C37.293 11.166 37.138 10.949 37.138 10.732C37.138 10.515 37.324 10.329 37.541 10.329H47.585C47.616 10.267 48.081 9.43 48.329 9.43C48.36 9.43 48.422 9.461 48.453 9.492L50.716 11.786C50.747 11.817 50.778 11.879 50.778 11.91C50.778 11.972 50.747 12.034 50.685 12.096C50.53 12.22 47.337 14.328 44.919 15.227L45.322 15.94H50.84L52.018 12.84C52.08 12.685 52.173 12.592 52.328 12.592C52.483 12.592 52.576 12.716 52.607 12.84L53.94 16.25C53.94 16.281 53.971 16.343 53.971 16.405C53.971 16.498 53.94 16.591 53.909 16.653C53.847 16.777 53.692 16.808 53.568 16.808ZM51.336 12.065V11.941C51.429 11.538 51.646 11.104 51.77 10.701C52.266 9.058 52.514 7.291 52.576 6.795H36.921C36.208 8.159 33.108 12.375 32.426 12.375C32.271 12.375 32.178 12.251 32.178 12.096C32.178 12.034 32.209 12.003 32.209 11.941C32.302 11.569 32.488 11.197 32.581 10.825C32.705 10.484 33.387 8.376 33.573 5.741C33.604 5.369 33.573 4.935 33.635 4.563C33.666 4.47 33.697 4.439 33.759 4.439H33.821C34.193 4.594 35.929 5.524 36.673 5.958H38.75L37.448 4.997C36.673 4.47 35.836 3.974 35.092 3.416C35.061 3.385 34.937 3.292 34.937 3.199C34.937 3.168 34.968 3.137 34.999 3.106L37.789 1.494C37.82 1.463 37.851 1.463 37.913 1.463C38.378 1.463 39.773 5.71 39.835 5.958H45.229V5.896C45.229 5.803 45.322 5.679 45.973 4.935C47.027 3.633 48.205 1.804 48.608 0.842999C48.639 0.811999 48.67 0.781 48.732 0.781C48.918 0.781 50.809 3.354 50.809 3.664C50.809 4.067 47.647 5.462 46.221 5.958H52.7C52.731 5.493 52.762 5.028 52.762 4.563C52.762 4.47 52.824 4.439 52.917 4.439C53.165 4.439 56.234 6.051 56.234 6.33C56.234 7.074 52.328 12.375 51.553 12.375C51.429 12.375 51.336 12.251 51.336 12.065ZM42.78 0.656999H42.842C43.307 0.656999 43.71 4.222 43.772 5.493C43.772 5.679 43.772 5.896 43.493 5.896C43.431 5.896 43.369 5.865 43.307 5.803C42.625 5.09 42.005 4.346 41.354 3.633C40.827 3.075 40.207 2.548 39.711 1.959C39.68 1.928 39.618 1.804 39.618 1.742C39.618 1.68 39.618 1.649 39.68 1.618L42.78 0.656999ZM78.833 23.38L77.314 22.14C76.818 21.737 76.322 21.334 75.826 20.9C72.726 22.822 69.533 23.504 69.533 23.504C69.378 23.504 69.254 23.411 69.254 23.287C69.254 23.163 69.378 23.07 69.44 23.008C69.967 22.667 70.556 22.388 71.114 22.047C72.292 21.303 73.439 20.435 74.431 19.443C73.656 18.296 73.439 16.777 73.439 16.033C73.439 15.382 73.594 15.289 73.656 15.258H73.687C73.749 15.258 73.811 15.289 73.842 15.32C74.555 16.095 75.206 16.963 76.012 17.614C76.911 16.374 77.593 15.01 78.089 13.553C78.089 13.491 78.12 13.429 78.151 13.336H70.866C70.618 13.336 70.463 13.119 70.463 12.902C70.463 12.685 70.649 12.499 70.866 12.499H73.966C73.935 12.468 73.935 12.406 73.935 12.344L74.152 7.105H69.936C69.657 7.105 69.502 6.888 69.502 6.671C69.502 6.454 69.657 6.237 69.936 6.237H74.183L74.338 2.734C74.338 2.61 74.4 2.517 74.524 2.517H74.586L77.562 2.951C77.717 2.982 77.779 3.075 77.779 3.23L77.593 6.237H80.135L81.344 3.106C81.375 3.013 81.499 2.889 81.623 2.889C81.747 2.889 81.871 2.982 81.933 3.106L83.235 6.547C83.266 6.609 83.297 6.671 83.297 6.733C83.297 6.795 83.266 6.857 83.235 6.919C83.173 7.043 83.049 7.105 82.894 7.105H77.562L77.252 12.344C77.252 12.406 77.221 12.468 77.19 12.499H78.368C78.43 12.251 78.492 12.003 78.585 11.755C78.616 11.662 78.709 11.6 78.802 11.6H78.864L82.46 12.84C82.553 12.871 82.584 12.964 82.584 13.057C82.584 13.429 80.817 16.684 78.399 18.947L79.422 19.319C80.445 19.691 81.437 19.846 82.491 20.063C82.615 20.094 82.739 20.125 82.801 20.249C82.801 20.28 82.832 20.311 82.832 20.373C82.832 20.404 82.801 20.466 82.77 20.497C82.336 21.055 79.825 23.969 79.577 23.969C79.546 23.969 79.267 23.814 78.833 23.38ZM66.464 14.421L65.844 14.793L65.813 16.343C65.782 17.335 65.751 18.42 65.565 19.412C65.379 20.28 64.573 22.295 63.519 22.357C63.209 22.388 58.745 20.497 58.311 20.218C58.218 20.156 58.187 20.063 58.187 19.97C58.187 19.97 58.187 19.567 58.528 19.567H58.621C59.179 19.753 59.644 19.939 60.14 19.939C62.155 19.939 62.403 17.118 62.465 16.374C62.031 16.56 61.597 16.715 61.163 16.839C60.078 17.211 59.365 17.428 58.931 17.428C58.745 17.428 58.652 17.335 58.59 17.149C58.528 16.932 58.063 15.351 58.063 15.196C58.063 14.948 58.156 14.948 59.272 14.824C60.357 14.7 61.473 14.545 62.589 14.297C62.651 12.995 62.682 11.693 62.713 10.36H58.063C57.815 10.36 57.66 10.143 57.66 9.926C57.66 9.709 57.815 9.492 58.063 9.492H62.713C62.713 8.159 62.713 6.795 62.744 5.462L62.775 3.602C62.775 3.509 62.868 3.447 62.961 3.447H63.023L65.968 4.594C66.092 4.656 66.185 4.78 66.185 4.935C66.185 5.121 66.154 5.276 66.154 5.462L66.03 9.492H67.301L68.231 7.043C68.262 6.95 68.386 6.826 68.51 6.826C68.634 6.826 68.758 6.919 68.82 7.043L69.874 9.802C69.874 9.833 69.905 9.895 69.905 9.957C69.905 10.019 69.874 10.112 69.843 10.174C69.781 10.298 69.657 10.36 69.502 10.36H65.999L65.906 13.429C65.937 13.429 65.968 13.429 65.999 13.398C66.588 13.212 67.146 13.026 67.735 12.809C68.324 12.561 68.479 12.53 68.541 12.53C68.634 12.53 68.696 12.561 68.727 12.623C68.758 12.654 68.758 12.685 68.758 12.716C68.758 12.964 67.642 13.677 66.464 14.421ZM102.114 18.296L101.494 17.242L100.285 15.289C99.758 14.452 99.107 13.553 98.58 12.685L98.239 21.675C98.239 21.799 98.115 21.892 98.022 21.892H97.96L95.325 21.489C95.17 21.458 95.108 21.334 95.108 21.21L95.325 13.305C93.899 15.816 91.698 17.986 91.047 18.544C90.985 18.575 90.923 18.637 90.861 18.637C90.768 18.637 90.675 18.482 90.675 18.389C90.675 18.358 90.675 18.327 91.295 16.901C91.667 15.971 92.008 15.041 92.287 14.08L92.845 12.096C93.031 11.135 93.124 10.918 93.341 10.918C93.372 10.918 93.434 10.918 93.465 10.949L95.387 11.879L95.449 9.647H91.698C91.543 9.647 91.419 9.616 91.357 9.523C90.52 11.135 89.373 12.375 87.978 13.398L90.148 13.77C90.303 13.801 90.365 13.925 90.365 14.049L89.869 23.039C89.869 23.194 89.714 23.256 89.59 23.256L87.172 23.008C87.017 23.008 86.955 22.884 86.955 22.729L87.327 13.863C84.847 15.568 83.452 15.909 83.328 15.909C83.142 15.909 83.049 15.785 83.049 15.661C83.049 15.568 83.08 15.506 83.142 15.413C83.452 15.072 83.855 14.762 84.196 14.421C88.133 10.67 88.35 7.818 88.35 6.733C87.389 7.167 85.839 7.756 85.033 7.787C84.878 7.787 84.63 7.756 84.63 7.508C84.63 7.415 84.723 7.291 84.785 7.229C85.033 6.981 85.374 6.764 85.653 6.516C87.389 4.935 87.978 4.129 88.815 2.92C89.032 2.579 89.187 2.176 89.435 1.897C89.466 1.835 89.559 1.804 89.621 1.804C89.683 1.804 89.714 1.804 89.745 1.835L92.225 3.912C92.256 3.943 92.287 3.974 92.287 4.036C92.287 4.098 92.225 4.191 92.194 4.253C91.636 4.873 90.21 5.772 89.249 6.299C91.946 6.826 92.194 6.95 92.194 7.229C92.194 7.322 92.132 7.849 91.698 8.779H95.48L95.604 4.749C95.604 4.656 95.697 4.563 95.79 4.563H95.852L98.642 5.245C98.766 5.276 98.859 5.431 98.859 5.555L98.735 8.779H99.882L101.091 5.679C101.122 5.555 101.215 5.431 101.37 5.431C101.525 5.431 101.618 5.524 101.68 5.679L102.982 9.089C103.013 9.151 103.044 9.213 103.044 9.275C103.044 9.337 103.013 9.399 102.982 9.461C102.92 9.585 102.765 9.647 102.641 9.647H98.704L98.611 11.941C99.293 11.817 101.091 11.569 101.277 11.569C101.432 11.569 101.494 11.662 101.525 11.786C102.083 13.925 102.579 17.242 102.579 18.265C102.579 18.42 102.517 18.482 102.424 18.482C102.331 18.482 102.207 18.42 102.114 18.296ZM106.113 24.31L101.649 22.388C101.525 22.326 101.494 22.233 101.494 22.14C101.494 21.954 101.618 21.737 101.804 21.737C101.835 21.737 101.866 21.768 101.897 21.768L102.176 21.892C102.517 22.047 102.889 22.14 103.23 22.14C105.245 22.14 105.462 19.598 105.555 17.707L105.803 14.483C105.834 13.987 105.803 13.398 105.896 12.933H102.517C102.238 12.933 102.083 12.716 102.083 12.499C102.083 12.282 102.238 12.065 102.517 12.065H110.174L111.352 8.965C111.414 8.841 111.507 8.717 111.662 8.717C111.786 8.717 111.91 8.841 111.941 8.934L113.274 12.375C113.305 12.437 113.305 12.499 113.305 12.561C113.305 12.778 113.057 12.933 112.902 12.933H106.919L108.872 13.46C109.027 13.491 109.089 13.677 109.089 13.832C109.089 14.142 109.027 14.483 108.996 14.824L108.841 16.839C108.717 18.327 108.655 19.815 108.469 21.303C108.345 22.171 107.601 24.341 106.516 24.341C106.392 24.341 106.237 24.31 106.113 24.31ZM112.127 7.198H103.478C103.23 7.198 103.075 6.981 103.075 6.764C103.075 6.578 103.23 6.361 103.478 6.361H109.399L110.577 3.23C110.608 3.137 110.763 2.982 110.887 2.982C111.042 2.982 111.135 3.106 111.166 3.23L112.499 6.671C112.53 6.733 112.53 6.795 112.53 6.857C112.53 7.012 112.344 7.198 112.127 7.198ZM102.3 1.246H102.393C102.796 1.246 103.664 4.253 103.881 5.741C103.881 5.772 103.912 5.834 103.912 5.865C103.912 5.958 103.881 6.02 103.788 6.082C103.757 6.113 103.695 6.113 103.664 6.113C103.602 6.113 103.571 6.082 103.509 6.02C102.796 5.338 102.145 4.625 101.401 3.974C100.905 3.509 100.316 3.075 99.851 2.579C99.789 2.517 99.727 2.455 99.727 2.362C99.727 2.331 99.758 2.3 99.82 2.269L102.3 1.246ZM132.835 22.667L130.169 22.295C129.952 22.264 129.797 22.078 129.797 21.861L129.859 21.334H117.986C117.738 21.334 117.552 21.086 117.552 20.838C117.552 20.59 117.738 20.342 117.986 20.342H129.89L130.634 9.492H118.854C118.606 9.492 118.42 9.275 118.42 8.996C118.42 8.748 118.606 8.5 118.854 8.5H130.696L130.758 7.725C130.758 7.539 130.944 7.415 131.13 7.415H131.192L133.858 8.128C134.044 8.19 134.168 8.376 134.168 8.562L133.238 22.295C133.238 22.512 133.052 22.667 132.835 22.667ZM155.651 23.876H155.527C150.505 22.233 147.281 21.334 143.158 20.621C142.941 20.59 142.817 20.497 142.817 20.311C142.817 20.28 142.848 20.218 142.848 20.187L143.809 17.924C143.902 17.769 144.026 17.676 144.181 17.676C144.522 17.676 151.311 20.125 155.744 23.349C155.868 23.411 155.93 23.504 155.93 23.597C155.93 23.628 155.93 23.876 155.651 23.876ZM154.132 16.281H154.039C149.761 15.041 147.808 14.483 144.491 13.801C144.336 13.77 144.212 13.646 144.212 13.46C144.212 13.429 144.212 13.367 144.243 13.336L145.08 11.445C145.142 11.29 145.235 11.104 145.483 11.104C145.607 11.104 150.257 12.995 154.38 15.63C154.504 15.692 154.535 15.785 154.535 15.909C154.535 16.188 154.349 16.281 154.132 16.281ZM144.925 6.547L146.134 4.811C146.258 4.656 146.413 4.532 146.568 4.532C146.692 4.532 151.652 7.198 154.907 9.895C155 9.988 155.031 10.081 155.031 10.174C155.031 10.36 154.907 10.515 154.69 10.515C154.628 10.515 154.597 10.515 154.535 10.484C150.195 8.717 148.304 7.973 145.142 6.95C145.018 6.888 144.863 6.857 144.863 6.671C144.863 6.64 144.894 6.578 144.925 6.547ZM180.092 21.21H164.034C163.817 21.21 163.631 20.931 163.631 20.714C163.631 20.497 163.817 20.28 164.034 20.28H173.334L173.923 13.584H166.824C166.607 13.584 166.452 13.367 166.452 13.15C166.452 12.933 166.607 12.716 166.824 12.716H174.016L174.109 11.817C174.109 11.693 174.233 11.569 174.357 11.569L176.62 12.499C176.806 12.561 176.868 12.685 176.868 12.84L176.031 20.28H177.984L178.852 17.986C178.945 17.769 179.069 17.738 179.131 17.738C179.193 17.738 179.317 17.769 179.41 17.986L180.433 20.621C180.433 20.621 180.464 20.714 180.464 20.745C180.464 21.055 180.185 21.21 180.092 21.21ZM203.776 22.853L200.583 23.039C200.459 23.039 200.335 22.946 200.335 22.822L200.304 21.644H190.725L190.694 22.636C190.694 22.76 190.57 22.884 190.446 22.884L187.253 22.915C187.129 22.915 187.005 22.791 187.005 22.667L187.47 6.237C187.47 6.144 187.563 6.051 187.656 6.051H187.718L191.066 6.795C191.221 6.826 191.314 6.919 191.314 7.074L191.283 7.725H199.932L199.901 6.516C199.901 6.392 199.994 6.299 200.118 6.299H200.149L203.528 6.857C203.652 6.888 203.776 6.981 203.776 7.136L204.024 22.605C204.024 22.729 203.9 22.853 203.776 22.853ZM200.273 20.838L200.118 14.824H191.004L190.756 20.838H200.273ZM200.087 14.018L199.932 8.531H191.252L191.035 14.018H200.087ZM237.535 18.544L236.636 22.326C236.605 22.45 236.512 22.543 236.357 22.543C235.551 22.481 234.745 22.357 233.939 22.264C225.538 21.365 224.949 19.908 224.949 18.854V17.831C224.949 16.498 224.98 15.196 224.98 13.863V11.476C224.98 11.383 225.073 11.29 225.166 11.29H225.228L228.762 12.189C228.886 12.22 228.979 12.344 228.979 12.468V12.499C228.979 12.561 228.948 12.592 228.948 12.623H231.831L233.102 6.454H225.228C224.98 6.454 224.825 6.237 224.825 6.02C224.825 5.803 225.011 5.617 225.228 5.617H233.257L233.505 4.47C233.536 4.377 233.629 4.315 233.722 4.315H233.784L236.853 5.214C236.946 5.245 237.039 5.369 237.039 5.462V5.524L235.148 14.08C235.117 14.204 235.024 14.266 234.9 14.266H234.838L231.831 13.832C231.738 13.801 231.645 13.708 231.645 13.615V13.553L231.676 13.429H228.824C228.824 13.584 228.793 13.739 228.793 13.863L228.359 17.831L228.173 19.381C228.173 19.443 228.142 19.505 228.142 19.567C228.142 20.094 228.545 20.528 231.18 20.528C233.257 20.528 233.846 20.28 235.954 18.947C236.295 18.73 236.605 18.482 236.915 18.296C237.008 18.234 237.101 18.203 237.225 18.203C237.38 18.203 237.535 18.296 237.535 18.451V18.544ZM221.539 23.566L218.873 23.535C218.749 23.535 218.656 23.411 218.656 23.287V22.946H215.308L215.339 23.256C215.339 23.38 215.246 23.504 215.122 23.535L212.518 24.062H212.456C212.363 24.062 212.27 23.969 212.27 23.876L211.929 16.839C211.929 16.746 211.991 16.653 212.084 16.653H212.146L214.843 17.335C214.998 17.366 215.091 17.49 215.091 17.645V17.769H218.966L219.059 16.591C219.059 16.498 219.152 16.405 219.245 16.405H219.307L221.911 17.273C222.097 17.335 222.128 17.428 222.128 17.614L221.787 23.318C221.787 23.442 221.663 23.566 221.539 23.566ZM223.089 7.136H210.162C209.883 7.136 209.759 6.919 209.759 6.702C209.759 6.485 209.883 6.268 210.162 6.268H215.246L214.316 1.835V1.773C214.316 1.68 214.409 1.587 214.502 1.587H217.292C217.416 1.587 217.571 1.711 217.571 1.835L217.974 6.268H220.361L221.539 3.168C221.57 3.075 221.725 2.92 221.849 2.92C221.973 2.92 222.097 3.044 222.128 3.137L223.461 6.578C223.492 6.64 223.492 6.702 223.492 6.764C223.492 6.981 223.244 7.136 223.089 7.136ZM218.718 22.109L218.935 18.606H215.122L215.277 22.109H218.718ZM221.508 11.135H212.983C212.735 11.135 212.58 10.918 212.58 10.701C212.58 10.484 212.735 10.267 212.983 10.267H219.307L220.237 7.849C220.299 7.694 220.392 7.601 220.547 7.601C220.702 7.601 220.795 7.725 220.826 7.849L221.88 10.577C221.911 10.639 221.911 10.701 221.911 10.763C221.911 10.856 221.849 11.135 221.508 11.135ZM221.508 15.01H212.983C212.735 15.01 212.58 14.793 212.58 14.576C212.58 14.39 212.735 14.173 212.983 14.173H219.307L220.237 11.724C220.299 11.569 220.392 11.476 220.547 11.476C220.702 11.476 220.795 11.6 220.826 11.724L221.88 14.483C221.911 14.545 221.911 14.607 221.911 14.669C221.911 14.824 221.725 15.01 221.508 15.01Z" fill="#555555"/>
</svg>
