<svg width="304" height="29" viewBox="0 0 304 29" fill="none" xmlns="http://www.w3.org/2000/svg">
<path d="M11.71 0.487L12.33 1.789C9.974 2.471 5.882 3.06 1.263 3.091L0.86 1.634C8.393 1.603 11.71 0.487 11.71 0.487ZM19.491 7.152L18.468 8.33C16.949 6.625 15.647 5.509 14.097 4.393L15.027 3.339C16.577 4.517 18.034 5.726 19.491 7.152ZM13.26 9.663H8.548V4.455C10.377 4.207 11.741 4.083 13.26 3.525L13.911 4.858C13.911 4.858 12.113 5.509 9.974 5.757V8.268H13.26V9.663ZM6.44 9.663H1.263V8.268H5.014V6.253C5.014 6.253 3.216 6.315 2.193 6.315L1.79 4.827C4.053 4.827 6.44 4.734 6.44 4.734V9.663ZM28.419 13.507L28.388 15.119C27.396 15.429 25.815 15.801 24.606 16.08V0.424999H26.063V14.158C27.055 13.91 28.419 13.507 28.419 13.507ZM21.103 15.305V12.081L20.204 13.042C18.778 11.585 17.228 10.283 15.678 9.136L16.701 8.082C17.972 9.105 19.367 10.283 21.103 11.864V5.323L20.7 5.819C19.367 4.61 17.631 3.06 16.081 2.037L17.042 0.921C18.282 1.882 19.429 2.688 21.103 4.114V0.424999H22.56V16.514C20.762 16.917 16.546 17.723 13.88 18.126L13.384 19.149C11.555 16.824 9.943 14.282 8.579 11.523H13.26V12.918H10.594C11.245 14.096 12.361 15.553 13.322 16.545C15.833 16.266 19.801 15.615 21.103 15.305ZM18.902 14.468L17.817 15.584C16.205 13.755 14.872 12.546 13.477 11.399L14.5 10.345C16.019 11.616 17.383 12.918 18.902 14.468ZM1.232 21.474L0.519 19.676C1.945 17.878 3.464 15.274 4.301 12.918H1.263V11.523H6.099C4.797 15.243 3.154 18.436 1.232 21.474ZM9.974 28.294H8.548V14.158C9.788 16.452 11.183 18.746 12.671 20.668L11.803 22.559C11.803 22.559 10.935 21.071 9.974 18.932V28.294ZM6.44 28.325L5.014 28.294V20.482C4.425 22.528 3.774 24.109 2.844 25.566L2.069 23.644C3.743 20.947 5.231 17.661 6.44 14.375V28.325ZM26.063 28.294H24.606V18.064C25.877 17.754 27.458 17.351 28.326 17.041L28.295 18.56C28.295 18.56 27.117 18.932 26.063 19.242V28.294ZM22.56 28.325L21.103 28.294V20.451C19.584 20.885 16.329 21.598 14.128 22.001L13.725 20.42C15.988 20.079 20.018 19.273 22.56 18.622V28.325ZM45.407 4.486L43.95 4.951C43.175 3.556 42.307 2.223 41.377 1.014L42.772 0.424999C43.64 1.572 44.57 3.029 45.407 4.486ZM52.909 4.579L51.421 5.013C50.801 3.556 50.119 2.161 49.344 0.858998L50.801 0.424999C51.514 1.634 52.258 3.06 52.909 4.579ZM54.8 6.625H38.029V13.724H36.634V5.23H40.168C39.641 4.238 38.99 3.153 38.308 2.285L39.734 1.634C40.447 2.595 41.222 3.897 41.935 5.23H47.825C47.391 4.114 46.678 2.688 46.089 1.696L47.608 1.262C48.228 2.378 48.91 3.804 49.468 5.23H53.901C55.172 3.618 55.916 2.099 56.505 0.393999L58.21 0.796999C57.311 2.905 56.226 4.858 54.8 6.625ZM63.418 13.693H62.023V6.625H57.156C58.613 4.61 59.543 2.967 60.225 1.231L61.713 1.634C61.186 2.967 60.566 4.176 59.946 5.23H63.418V13.693ZM63.79 18.746H52.134V17.568C54.459 16.731 57.001 15.615 59.419 14.375V12.267H40.199V8.175H59.853V10.903H60.814V14.995C59.481 15.708 57.435 16.607 55.42 17.289H63.79V18.746ZM55.978 13.724V14.499C53.777 15.739 51.793 16.545 49.809 17.041V18.746H35.89V17.289H48.414V15.863H49.84C49.84 15.863 51.204 15.615 52.537 15.119H39.176V13.724H55.978ZM47.081 24.853H41.873L41.346 23.396H47.081C48.166 23.396 48.414 23.21 48.414 22.156V21.939H35.89V20.482H49.809V22.156C49.809 24.388 49.127 24.853 47.081 24.853ZM63.79 21.939H53.529V22.156C53.529 27.116 52.227 28.294 47.577 28.294H43.206L42.679 26.837H47.36C51.7 26.837 52.134 25.659 52.134 22.156V20.482H63.79V21.939ZM58.458 10.903V9.57H41.594V10.903H58.458ZM98.727 4.548H91.411V0.424999H92.93V3.029H98.727V4.548ZM89.458 4.548H82.235V3.029H87.939V0.424999H89.458V4.548ZM76.686 6.687H71.974V5.292H75.229V0.424999H76.686V6.687ZM89.458 11.926H82.514V10.376H87.939V7.865H82.235V6.687H78.639V0.424999H80.096V5.292H82.793V6.377H89.458V11.926ZM75.229 13.848V9.756H71.974V8.361H76.686V14.995C76.686 14.995 74.547 15.491 71.54 15.987L71.199 14.468C73.245 14.22 75.229 13.848 75.229 13.848ZM94.728 13.538V14.313C94.108 17.041 92.341 19.428 90.419 21.009C88.559 19.428 87.04 17.227 86.017 15.057H82.514V13.662C81.274 14.034 79.941 14.344 78.608 14.592V8.361H82.793V9.756H80.065V12.918C81.522 12.577 82.793 12.174 82.793 12.174V13.538H94.728ZM99.099 23.427L98.324 24.977C96.154 24.295 94.232 23.551 92.248 22.249C96.123 18.312 96.898 14.158 96.898 14.158V11.926H91.411V6.377H98.727V7.865H92.93V10.376H98.355V14.127C98.355 14.127 97.301 18.56 94.48 21.877C95.751 22.559 97.239 22.993 99.099 23.427ZM81.677 25.008L80.964 23.396C83.134 23.024 84.87 22.497 86.451 21.815C84.901 19.924 83.165 16.607 83.165 16.607L84.343 15.925C85.459 18.281 86.916 20.389 88.683 22.218C86.265 23.644 84.188 24.419 81.677 25.008ZM74.268 24.76H71.974L71.571 23.365H73.772C75.074 23.365 75.229 23.024 75.229 21.815V18.808C75.229 18.808 74.175 19.087 72.222 19.397L71.912 17.878C74.33 17.506 76.686 17.01 76.686 17.01V21.815C76.686 23.427 76.407 24.76 74.268 24.76ZM75.322 28.294H73.121L72.687 26.837H75.043C78.298 26.837 78.639 25.535 78.639 21.846V16.545C80.251 16.204 81.646 15.832 82.793 15.429V16.917C82.793 16.917 81.429 17.413 80.096 17.785V21.846C80.096 26.217 79.507 28.294 75.322 28.294ZM97.487 26.682L96.712 28.294C94.294 27.426 92.434 26.558 90.543 25.318C88.404 26.62 86.389 27.488 83.103 28.294L82.421 26.682C85.428 26.062 87.784 25.163 90.512 23.551C92.651 24.977 95.348 26 97.487 26.682ZM93.116 15.057H87.66C88.342 16.638 89.21 17.909 90.419 19.118C92.341 17.351 93.116 15.057 93.116 15.057ZM119.187 28.325L117.73 28.294V10.345H114.537L114.816 10.624L114.32 11.616L115.281 11.647C115.25 17.506 114.816 22.869 114.661 24.667L113.452 24.202C113.452 24.202 114.134 18.25 114.165 11.988C113.793 12.701 113.39 13.383 113.018 13.879V28.294H111.685V13.569C112.522 12.391 113.204 11.182 113.762 9.88V8.95H119.187V28.325ZM122.349 28.294H120.892V8.95H126.286V9.353H134.47V10.686H126.286V10.345H122.349V28.294ZM126.41 28.294L125.914 26.775C131.122 26.775 131.866 26.527 131.866 22.311V12.608H134.47V13.941H133.137V22.497C133.137 26.837 132.672 28.294 126.41 28.294ZM128.239 22.249V13.941H126.286V12.608H129.51V22.311C129.51 24.729 128.921 24.884 125.325 24.884L124.891 23.52H126.193C128.239 23.52 128.239 23.427 128.239 22.249ZM126.286 7.09H120.892V0.424999H122.349V1.851L123.217 1.51C123.558 2.161 124.209 3.556 124.798 5.044L123.682 5.54C123.248 4.238 122.628 2.688 122.349 2.099V5.695H126.286V7.09ZM109.639 28.325L108.306 28.294V19.273C107.841 19.707 107.345 20.048 107.345 20.048L107.128 18.467C107.934 17.909 108.895 17.072 109.639 16.142V28.325ZM116.769 25.535L115.529 25.07C115.653 23.458 116.056 17.785 116.056 11.678L117.172 11.74C117.172 18.343 116.769 25.535 116.769 25.535ZM119.187 7.09H113.762V5.695H117.73V0.424999H119.187V7.09ZM124.519 23.768L123.279 24.264V22.435C123.279 20.172 123.248 16.018 123 11.74L124.023 11.678C124.333 17.01 124.488 22.28 124.519 23.768ZM108.802 10.004L108.058 8.454C109.918 6.935 111.84 4.424 113.173 2.037L114.382 2.719C112.956 5.261 110.91 8.175 108.802 10.004ZM106.787 15.553L106.539 13.848C106.539 13.848 109.732 11.275 111.654 7.276L112.677 8.33C111.127 11.182 109.298 13.662 106.787 15.553ZM126.503 23.055L125.356 23.458C125.263 21.691 125.17 16.731 124.798 11.647L125.759 11.585C126.317 17.909 126.503 23.055 126.503 23.055ZM134.067 2.688H126.627V1.293H134.067V2.688ZM134.067 5.943H126.627V4.548H134.067V5.943ZM107.252 6.625L106.57 5.168C106.57 5.168 108.957 3.308 110.476 0.424999L111.716 1.107C110.476 3.153 108.833 5.292 107.252 6.625ZM126.968 4.207L125.821 4.672C125.263 3.215 124.612 1.82 124.271 1.107L125.294 0.703999C125.294 0.703999 126.162 2.347 126.968 4.207ZM162.122 11.461V8.826C161.192 8.795 159.766 8.795 158.03 8.795C154.093 8.795 148.668 8.857 144.917 8.981V7.431C148.544 7.338 153.845 7.307 158.185 7.307C160.355 7.307 162.277 7.307 163.61 7.338V10.965C163.61 13.972 163.61 17.258 163.579 21.195C161.409 21.226 158.991 21.226 156.573 21.226C152.047 21.226 147.552 21.195 144.793 21.133V19.583C147.521 19.707 152.667 19.769 157.41 19.769C159.053 19.769 160.665 19.769 162.091 19.738C162.122 16.855 162.122 13.848 162.122 11.461ZM167.299 26.279L165.749 26.248C165.656 23.551 165.625 19.397 165.625 15.305C165.625 11.647 165.656 8.051 165.718 5.509C163.517 5.571 160.324 5.602 156.976 5.602C152.667 5.602 148.079 5.54 144.917 5.478V3.959C147.862 4.052 152.171 4.083 156.387 4.083C160.634 4.083 164.757 4.052 167.268 3.959C167.175 6.749 167.113 10.903 167.113 14.995C167.113 19.397 167.175 23.706 167.299 26.279ZM163.517 26.279L161.967 26.248L162.029 24.512C159.611 24.512 156.666 24.481 153.814 24.481C150.311 24.481 146.932 24.512 144.793 24.574V23.055C146.963 22.993 150.156 22.993 153.535 22.993C156.945 22.993 160.541 22.993 163.517 23.024V26.279ZM198.206 4.92L197.648 6.408C192.564 4.579 187.263 3.06 182.489 2.161L182.985 0.796999C187.418 1.603 192.967 3.029 198.206 4.92ZM196.904 8.299L196.315 9.818C191.634 7.834 186.085 6.253 181.342 5.323L181.869 3.897C186.767 4.889 191.944 6.315 196.904 8.299ZM196.16 13.011L195.602 14.406C191.913 12.887 187.728 11.554 183.233 10.531L183.76 9.198C188.038 10.128 192.378 11.461 196.16 13.011ZM194.858 16.328L194.269 17.785C190.58 16.111 186.178 14.716 181.962 13.786L182.52 12.329C187.139 13.383 191.138 14.654 194.858 16.328ZM199.198 23.241L198.547 24.636C192.13 22.032 186.116 20.265 179.854 18.901L180.474 17.537C186.829 18.87 193.401 20.73 199.198 23.241ZM197.524 26.806L196.842 28.232C191.51 25.69 184.876 23.706 178.273 22.373L178.955 20.885C185.496 22.249 191.572 24.078 197.524 26.806ZM232.306 21.288V22.59C230.88 22.621 227.811 22.621 225.269 22.652L226.695 8.826C224.246 8.857 220.402 8.888 217.116 8.888C215.659 8.888 214.295 8.888 213.21 8.857L213.179 7.524C214.512 7.586 216.682 7.617 219.038 7.617C222.2 7.617 225.765 7.586 228.121 7.555L226.664 21.381C228.989 21.381 231.035 21.35 232.306 21.288ZM222.231 21.412L223.347 11.461C220.278 11.523 216.496 11.492 213.303 11.709L213.272 10.376C216.217 10.252 220.96 10.252 224.804 10.159L223.347 22.683C218.294 22.683 212.745 22.652 210.172 22.59V21.288C212.094 21.381 217.209 21.412 222.231 21.412ZM232.306 24.171V25.442C230.136 25.38 225.61 25.38 221.146 25.38C216.651 25.38 212.218 25.38 210.172 25.442V24.171C212.59 24.109 216.899 24.109 221.208 24.109C225.548 24.109 229.888 24.109 232.306 24.171ZM261.353 12.887H246.566V4.393H261.353V12.887ZM265.259 28.325L263.771 28.294V2.44H244.148V28.294H242.66V0.982999H265.259V28.325ZM261.353 23.892H246.566V14.84H261.353V23.892ZM261.353 28.325L259.865 28.294V27.271H248.054V28.294H246.566V25.845H261.353V28.325ZM259.865 11.43V5.85H248.054V11.43H259.865ZM259.865 22.435V16.297H248.054V22.435H259.865ZM287.114 2.254H276.202V0.982999H287.114V2.254ZM287.114 4.548H276.202V3.277H287.114V4.548ZM287.951 6.811H275.365V5.447H287.951V6.811ZM287.951 9.508H275.365V8.175H287.951V9.508ZM287.114 11.647H276.202V10.438H287.114V11.647ZM296.321 24.078H294.492C293.004 24.078 292.229 23.675 292.229 21.846V13.631H300.878V2.44H288.385V0.982999H302.273V15.057H293.624V21.784C293.624 22.435 293.841 22.621 294.523 22.621H296.259C297.685 22.621 297.871 22.001 298.15 17.692L299.576 18.25C299.266 23.396 298.739 24.078 296.321 24.078ZM287.114 13.817H276.202V12.639H287.114V13.817ZM287.114 15.925H276.202V14.716H287.114V15.925ZM298.336 27.674H293.159C289.842 27.674 288.633 26.217 288.633 22.311V10.314H297.251V5.757H288.385V4.3H298.646V11.771H290.028V22.249C290.028 25.287 290.617 26.217 293.159 26.217H298.305C301.126 26.217 301.405 24.605 301.839 19.18L303.265 19.738C302.707 26.682 301.746 27.674 298.336 27.674ZM287.114 18.095H276.202V16.917H287.114V18.095ZM284.076 24.884H279.209V21.443H284.076V24.884ZM287.362 27.581L280.542 27.55V28.294H279.209V26.217H285.967V20.203H277.349V28.294H275.954V18.994H287.362V27.581ZM282.774 23.799V22.528H280.542V23.799H282.774Z" fill="rgba(38, 38, 38, 1)"/>
</svg>
